<?xml version="1.0" standalone="no"?>
<!DOCTYPE svg PUBLIC "-//W3C//DTD SVG 20010904//EN"
 "http://www.w3.org/TR/2001/REC-SVG-20010904/DTD/svg10.dtd">
<svg version="1.0" xmlns="http://www.w3.org/2000/svg"
 width="512.000000pt" height="512.000000pt" viewBox="0 0 512.000000 512.000000"
 preserveAspectRatio="xMidYMid meet">

<g transform="translate(0.000000,512.000000) scale(0.100000,-0.100000)"
fill="#FAF7FF" stroke="none">
<path d="M2321 5110 c-1341 -130 -2361 -1283 -2318 -2620 13 -389 97 -726 268
-1069 249 -502 647 -900 1150 -1150 815 -406 1779 -350 2539 147 297 194 579
482 771 788 74 116 184 342 234 478 51 138 110 376 131 531 23 157 26 521 6
660 -59 415 -191 769 -410 1099 -92 140 -185 254 -315 385 -398 403 -895 653
-1462 737 -122 18 -466 26 -594 14z m445 -341 c359 -35 729 -166 1022 -363
1153 -772 1328 -2387 368 -3384 -849 -882 -2250 -909 -3131 -60 -197 189 -338
381 -456 623 -298 609 -303 1318 -14 1923 219 458 572 816 1026 1041 249 124
512 196 819 225 83 7 265 5 366 -5z"/>
<path d="M2485 3739 c-40 -22 -727 -714 -747 -753 -26 -51 -21 -129 11 -175
28 -39 89 -71 136 -71 70 0 105 26 307 228 l198 196 0 -809 c0 -557 4 -822 11
-850 22 -78 114 -136 192 -121 48 9 96 44 118 86 18 33 19 76 19 862 0 456 3
828 8 828 4 0 93 -86 197 -191 105 -105 204 -197 222 -205 106 -46 232 38 233
153 0 23 -5 54 -11 70 -13 36 -703 728 -745 748 -37 17 -120 19 -149 4z"/>
</g>
</svg>
